PathFileType	4	(x/y/z)	S05_P20_T24
DataRate	CameraRate	NumFrames	NumMarkers	Units	OrigDataRate	OrigDataStartFrame	OrigNumFrames
240	240	10	50	mm	240	268	356
Frame#	Time	Sternum			R.Acromium			L.Acromium			Top.Head			R.ASIS			L.ASIS			R.PSIS			L.PSIS			R.Great.Tro			L.Great.Tro			R.Iliac.Crest			L.Iliac.Crest			V.Sacral			R.Thigh.Upper.Post			R.Thigh.Lower.Ant			R.Thigh.Lower.Post			R.Thigh.Upper.Ant			R.Knee.Lat			R.Knee.Med			R.Shank.Upper.Post			R.Shank.Lower.Ant			R.Shank.Lower.Post			R.Shank.Upper.Ant			R.Ankle.Lat			R.Ankle.Med			R.Heel.Upper			R.Heel.Med			R.Heel.Lat			R.Toe.Lat			R.Toe.Med			R.Toe.Tip			L.Thigh.Upper.Post			L.Thigh.Lower.Ant			L.Thigh.Lower.Post			L.Thigh.Upper.Ant			L.Knee.Lat			L.Shank.Upper.Post			L.Shank.Lower.Ant			L.Shank.Lower.Post			L.Shank.Upper.Ant			L.Ankle.Lat			L.Ankle.Med			L.Heel.Upper			L.Heel.Med			L.Heel.Lat			L.Toe.Lat			L.Toe.Med			L.Toe.Tip			Cervical.Spine			Back			
		X1	Y1	Z1	X2	Y2	Z2	X3	Y3	Z3	X4	Y4	Z4	X5	Y5	Z5	X6	Y6	Z6	X7	Y7	Z7	X8	Y8	Z8	X9	Y9	Z9	X10	Y10	Z10	X11	Y11	Z11	X12	Y12	Z12	X13	Y13	Z13	X14	Y14	Z14	X15	Y15	Z15	X16	Y16	Z16	X17	Y17	Z17	X18	Y18	Z18	X19	Y19	Z19	X20	Y20	Z20	X21	Y21	Z21	X22	Y22	Z22	X23	Y23	Z23	X24	Y24	Z24	X25	Y25	Z25	X26	Y26	Z26	X27	Y27	Z27	X28	Y28	Z28	X29	Y29	Z29	X30	Y30	Z30	X31	Y31	Z31	X32	Y32	Z32	X33	Y33	Z33	X34	Y34	Z34	X35	Y35	Z35	X36	Y36	Z36	X37	Y37	Z37	X38	Y38	Z38	X39	Y39	Z39	X40	Y40	Z40	X41	Y41	Z41	X42	Y42	Z42	X43	Y43	Z43	X44	Y44	Z44	X45	Y45	Z45	X46	Y46	Z46	X47	Y47	Z47	X48	Y48	Z48	X49	Y49	Z49	X50	Y50	Z50	

268	1.1125	112.15	1254.7	328.84	20.821	1525.5	474.03	7.1805	1522.6	145.05	-7.1966	1815	289.95	33.994	999.25	464.14	46.179	1007.2	214.73	-162.98	1016	370.15	-158.5	1019.8	278.34	-46.548	917.28	525.06	-30.941	926.09	133.86	-55.336	1083.1	498.09	-43.858	1081.3	163.37	-173.7	982.85	335.91	48.975	700.86	536.81	115.18	637.61	491.47	53.862	611.45	520.87	105.85	725.83	506.82	48.688	518.23	507.01	69.858	500.01	376.37	-163.34	413.01	472.75	-173.19	322.5	466.44	-219.25	365.22	448.1	-115.96	370.48	490.09	-263.49	272.56	441.5	-228.83	281.24	359.07	-334.5	300.97	370.41	-349.76	274.87	337.68	-359.75	276.78	402.45	-289.34	131.03	464.17	-240.52	111.88	354.54	-195.8	74.192	407.7	23.271	690.8	147.33	117.15	638.17	172.76	54.477	602.28	166.39	94.195	724.47	153.54	88.64	518.84	175.18	34.536	315.54	182.6	103.4	260	190.1	34.495	244.87	203.96	99.308	329.28	174.53	69.168	110.82	216.17	106.32	130.35	300.3	16.874	64.309	272.46	29.187	41.414	305.42	16.459	37.745	245.02	194.55	38.856	179.07	224.7	55.33	295.66	283.62	66.953	237.57	-40.832	1558.3	316.05	-154.88	1282	327.57
269	1.1167	117.17	1255.1	328.72	25.958	1526.2	473.63	12.686	1523.1	144.62	-1.8253	1815.7	289.58	39.11	1000.1	463.77	50.721	1007.9	214.35	-158.15	1016.6	370.31	-153.79	1020.5	278.46	-40.798	918.07	525.11	-26.894	926.7	133.81	-50.248	1083.9	497.96	-39.307	1081.9	163.21	-168.89	983.44	336.05	57.966	702.95	536.62	124.76	640.69	490.75	64.095	613.6	520.72	114.11	728.78	506.05	60.153	520.41	506.77	80.899	502.56	375.97	-151.89	415.72	472.53	-161.85	325.2	466.18	-207.93	368	448.04	-104.5	373.11	489.71	-252.24	275.47	441.25	-217.82	284.44	358.65	-323.86	303.77	370.45	-339.13	277.59	337.82	-348.8	279.44	402.62	-277.29	134.08	463.77	-228.94	115.22	353.91	-183.83	77.268	406.91	26.353	691.2	147.2	120.02	638.11	172.41	57.168	602.52	166.23	97.453	724.52	153.26	90.878	518.83	175	35.723	315.82	182.62	104.29	259.93	190.01	35.332	245.16	203.98	100.56	329.2	174.44	69.364	110.93	216.19	106.61	130.35	300.34	16.878	64.369	272.5	29.196	41.44	305.42	16.479	37.81	245.03	194.58	38.809	179.02	224.76	55.23	295.65	283.7	66.758	237.54	-35.541	1559.1	315.57	-149.86	1282.8	327.04
270	1.1208	122.18	1255.5	328.61	31.072	1526.9	473.25	18.165	1523.7	144.22	3.5453	1816.5	289.25	44.207	1001	463.4	55.259	1008.6	213.96	-153.34	1017.2	370.47	-149.09	1021.2	278.58	-35.085	918.94	525.15	-22.856	927.32	133.77	-45.163	1084.7	497.81	-34.77	1082.5	163.06	-164.09	984.07	336.18	66.864	705.16	536.38	134.22	643.89	489.97	74.227	615.88	520.5	122.28	731.83	505.23	71.491	522.72	506.46	91.81	505.23	375.5	-140.46	418.27	472.28	-150.42	327.74	465.9	-196.58	370.56	447.96	-93.008	375.65	489.3	-240.8	278.06	441	-206.67	287.41	358.21	-313.12	306.14	370.55	-328.37	279.86	338.01	-337.69	281.61	402.85	-264.79	136.78	463.33	-216.96	118.36	353.21	-171.36	80.274	405.97	29.395	691.6	147.11	122.84	638.04	172.11	59.804	602.77	166.1	100.67	724.56	153.02	93.046	518.82	174.85	36.877	316.1	182.66	105.15	259.88	189.94	36.148	245.45	204.02	101.78	329.14	174.37	69.555	111.05	216.22	106.89	130.36	300.38	16.875	64.437	272.53	29.201	41.472	305.42	16.497	37.881	245.05	194.6	38.769	178.98	224.82	55.133	295.64	283.78	66.574	237.52	-30.269	1559.8	315.11	-144.86	1283.7	326.54
271	1.125	127.17	1256	328.51	36.162	1527.7	472.9	23.617	1524.3	143.85	8.9149	1817.2	288.95	49.284	1001.9	463.01	59.797	1009.3	213.58	-148.54	1017.9	370.61	-144.38	1022	278.69	-29.409	919.87	525.2	-18.817	927.94	133.75	-40.081	1085.5	497.65	-30.241	1083.2	162.91	-159.3	984.74	336.31	75.666	707.47	536.08	143.57	647.19	489.14	84.253	618.29	520.21	130.35	734.96	504.37	82.699	525.14	506.09	102.59	508.02	374.97	-129.07	420.65	472.02	-138.9	330.1	465.62	-185.2	372.87	447.89	-81.488	378.08	488.86	-229.2	280.33	440.75	-195.42	290.14	357.77	-302.3	308.07	370.68	-317.49	281.69	338.24	-326.43	283.31	403.12	-251.88	139.15	462.88	-204.59	121.27	352.44	-158.42	83.183	404.93	32.401	692.01	147.05	125.61	637.97	171.85	62.388	603.02	166.02	103.85	724.59	152.82	95.148	518.83	174.74	38.001	316.37	182.72	105.99	259.84	189.87	36.946	245.74	204.06	102.96	329.08	174.32	69.743	111.17	216.25	107.16	130.38	300.43	16.865	64.513	272.56	29.202	41.509	305.41	16.515	37.958	245.07	194.63	38.736	178.95	224.88	55.038	295.64	283.85	66.397	237.5	-25.018	1560.6	314.67	-139.86	1284.5	326.05
272	1.1292	132.14	1256.6	328.41	41.231	1528.5	472.58	29.042	1525	143.5	14.283	1818	288.69	54.34	1002.9	462.63	64.341	1010	213.19	-143.75	1018.7	370.75	-139.66	1022.8	278.79	-23.77	920.88	525.24	-14.768	928.58	133.74	-35.002	1086.5	497.48	-25.71	1083.9	162.76	-154.52	985.47	336.43	84.368	709.88	535.73	152.81	650.58	488.27	94.167	620.81	519.86	138.32	738.16	503.49	93.771	527.66	505.66	113.24	510.91	374.4	-117.71	422.85	471.76	-127.29	332.27	465.33	-173.79	374.92	447.82	-69.942	380.4	488.41	-217.45	282.27	440.51	-184.04	292.6	357.33	-291.38	309.58	370.86	-306.49	283.08	338.52	-315.02	284.54	403.43	-238.58	141.17	462.41	-191.87	123.94	351.64	-145.04	85.971	403.81	35.376	692.43	147.01	128.33	637.88	171.64	64.923	603.28	165.97	107	724.62	152.65	97.185	518.84	174.67	39.097	316.65	182.78	106.8	259.82	189.82	37.725	246.03	204.1	104.11	329.04	174.29	69.928	111.3	216.29	107.42	130.39	300.49	16.848	64.598	272.6	29.199	41.552	305.41	16.532	38.041	245.09	194.65	38.708	178.92	224.94	54.942	295.65	283.93	66.226	237.49	-19.787	1561.4	314.27	-134.87	1285.4	325.58
273	1.1333	137.1	1257.2	328.32	46.279	1529.3	472.28	34.438	1525.7	143.19	19.649	1818.8	288.46	59.373	1003.9	462.24	68.895	1010.7	212.81	-138.96	1019.4	370.87	-134.94	1023.6	278.88	-18.17	921.94	525.27	-10.703	929.22	133.73	-29.93	1087.5	497.29	-21.17	1084.6	162.61	-149.74	986.23	336.54	92.966	712.37	535.35	161.92	654.05	487.37	103.96	623.43	519.47	146.19	741.43	502.59	104.71	530.27	505.19	123.75	513.89	373.78	-106.4	424.86	471.49	-115.6	334.24	465.03	-162.35	376.71	447.75	-58.373	382.59	487.93	-205.54	283.89	440.27	-172.56	294.79	356.88	-280.35	310.65	371.06	-295.34	284.01	338.81	-303.46	285.31	403.77	-224.94	142.86	461.94	-178.82	126.35	350.81	-131.26	88.62	402.65	38.325	692.86	147	131	637.8	171.47	67.41	603.54	165.95	110.13	724.65	152.51	99.159	518.86	174.63	40.163	316.92	182.85	107.59	259.81	189.78	38.487	246.32	204.15	105.23	329.01	174.27	70.112	111.43	216.33	107.68	130.42	300.55	16.824	64.69	272.63	29.192	41.6	305.4	16.549	38.13	245.1	194.68	38.683	178.9	225	54.846	295.66	284.01	66.057	237.48	-14.577	1562.2	313.89	-129.88	1286.4	325.13
274	1.1375	142.04	1257.8	328.24	51.307	1530.1	472	39.806	1526.4	142.9	25.014	1819.7	288.27	64.384	1005	461.84	73.463	1011.5	212.44	-134.18	1020.3	370.97	-130.21	1024.4	278.95	-12.612	923.06	525.3	-6.6134	929.88	133.73	-24.867	1088.5	497.1	-16.613	1085.3	162.46	-144.97	987.03	336.65	101.46	714.94	534.94	170.91	657.58	486.45	113.64	626.14	519.02	153.96	744.74	501.68	115.5	532.95	504.67	134.12	516.96	373.13	-95.121	426.67	471.23	-103.83	336	464.73	-150.88	378.23	447.69	-46.785	384.63	487.44	-193.5	285.18	440.04	-160.97	296.7	356.45	-269.21	311.3	371.29	-284.06	284.51	339.13	-291.76	285.63	404.12	-210.98	144.22	461.48	-165.44	128.5	349.98	-117.11	91.113	401.47	41.252	693.3	147.01	133.64	637.7	171.34	69.854	603.81	165.97	113.23	724.68	152.41	101.07	518.89	174.63	41.202	317.19	182.93	108.36	259.81	189.76	39.231	246.61	204.21	106.32	329	174.27	70.294	111.56	216.38	107.93	130.44	300.61	16.794	64.788	272.67	29.181	41.655	305.4	16.564	38.224	245.12	194.7	38.662	178.88	225.06	54.748	295.69	284.09	65.888	237.48	-9.388	1563	313.54	-124.89	1287.3	324.7
275	1.1417	146.98	1258.5	328.15	56.316	1531	471.75	45.147	1527.2	142.64	30.377	1820.5	288.11	69.37	1006.1	461.45	78.047	1012.3	212.07	-129.41	1021.1	371.06	-125.47	1025.3	279	-7.0975	924.22	525.32	-2.4939	930.55	133.73	-19.819	1089.6	496.89	-12.028	1086.1	162.31	-140.21	987.86	336.73	109.84	717.56	534.5	179.77	661.17	485.51	123.19	628.92	518.55	161.63	748.1	500.77	126.16	535.7	504.12	144.35	520.09	372.45	-83.89	428.27	470.98	-91.994	337.54	464.42	-139.4	379.47	447.63	-35.183	386.53	486.95	-181.32	286.15	439.82	-149.27	298.31	356.02	-257.96	311.53	371.51	-272.63	284.56	339.45	-279.91	285.51	404.48	-196.74	145.27	461.05	-151.77	130.37	349.17	-102.63	93.44	400.31	44.161	693.75	147.03	136.24	637.61	171.25	72.256	604.09	166	116.32	724.7	152.34	102.93	518.93	174.65	42.211	317.46	183.01	109.12	259.82	189.74	39.958	246.89	204.26	107.37	328.99	174.28	70.474	111.69	216.43	108.18	130.47	300.67	16.759	64.892	272.7	29.167	41.714	305.4	16.58	38.323	245.13	194.73	38.641	178.87	225.12	54.65	295.71	284.17	65.719	237.49	-4.2185	1563.9	313.21	-119.91	1288.3	324.3
276	1.1458	151.9	1259.3	328.07	61.308	1531.9	471.51	50.46	1528	142.41	35.737	1821.4	287.99	74.331	1007.2	461.06	82.651	1013	211.72	-124.64	1022	371.13	-120.72	1026.2	279.04	-1.6281	925.43	525.33	1.6595	931.24	133.72	-14.792	1090.7	496.67	-7.4081	1086.8	162.17	-135.44	988.73	336.8	118.1	720.24	534.05	188.51	664.79	484.57	132.6	631.77	518.04	169.2	751.47	499.87	136.67	538.51	503.54	154.44	523.28	371.75	-72.703	429.66	470.74	-80.092	338.88	464.11	-127.9	380.45	447.58	-23.573	388.27	486.44	-169.02	286.81	439.6	-137.46	299.63	355.6	-246.59	311.35	371.74	-261.04	284.19	339.76	-267.92	284.97	404.82	-182.23	146.03	460.66	-137.81	131.96	348.41	-87.829	95.591	399.2	47.054	694.21	147.07	138.8	637.51	171.2	74.62	604.38	166.05	119.39	724.73	152.3	104.72	518.98	174.7	43.189	317.73	183.09	109.85	259.84	189.73	40.667	247.17	204.31	108.4	328.99	174.3	70.652	111.82	216.49	108.42	130.5	300.74	16.718	65.001	272.74	29.149	41.778	305.39	16.595	38.428	245.14	194.76	38.622	178.86	225.18	54.551	295.75	284.26	65.549	237.5	0.93152	1564.8	312.9	-114.93	1289.2	323.91
277	1.15	156.81	1260.1	328	66.284	1532.8	471.3	55.746	1528.8	142.2	41.096	1822.3	287.9	79.268	1008.3	460.68	87.275	1013.8	211.38	-119.87	1023	371.17	-115.96	1027.1	279.05	3.7945	926.66	525.34	5.8485	931.93	133.71	-9.7913	1091.8	496.45	-2.744	1087.6	162.02	-130.67	989.62	336.86	126.25	722.95	533.59	197.11	668.44	483.62	141.88	634.67	517.52	176.66	754.86	498.98	147.03	541.36	502.94	164.37	526.52	371.03	-61.561	430.84	470.52	-68.131	339.99	463.8	-116.38	381.15	447.53	-11.96	389.86	485.93	-156.61	287.17	439.39	-125.54	300.64	355.19	-235.09	310.76	371.94	-249.29	283.38	340.06	-255.78	284.02	405.15	-167.5	146.51	460.32	-123.58	133.27	347.71	-72.748	97.563	398.18	49.934	694.68	147.11	141.33	637.4	171.19	76.948	604.68	166.12	122.44	724.75	152.29	106.46	519.04	174.76	44.135	318	183.17	110.56	259.86	189.72	41.358	247.45	204.37	109.39	329	174.33	70.828	111.95	216.54	108.65	130.54	300.8	16.673	65.113	272.77	29.129	41.847	305.39	16.611	38.536	245.15	194.78	38.603	178.86	225.25	54.453	295.78	284.34	65.377	237.51	6.0627	1565.6	312.62	-109.95	1290.2	323.54
